<svg width="1190" height="206" viewBox="0 0 1190 206" fill="none" xmlns="http://www.w3.org/2000/svg">
<path d="M166.617 59.0859C167.977 59.0859 169.289 59.3203 170.555 59.7891C171.867 60.2109 173.016 60.8438 174 61.6875C175.031 62.4844 175.852 63.4922 176.461 64.7109C177.07 65.8828 177.375 67.2188 177.375 68.7188C177.375 71.625 176.438 74.9297 174.562 78.6328C172.688 82.3359 170.25 86.6719 167.25 91.6406C164.016 96.9375 160.969 102.234 158.109 107.531C155.25 112.781 152.578 117.867 150.094 122.789C147.656 127.664 145.406 132.281 143.344 136.641C141.328 140.953 139.57 144.82 138.07 148.242C139.945 148.477 141.82 148.664 143.695 148.805C145.57 148.945 147.258 148.992 148.758 148.945L148.898 152.602C148.57 152.602 147.328 152.602 145.172 152.602C143.062 152.555 140.18 152.273 136.523 151.758C135.07 155.133 133.945 157.758 133.148 159.633C132.398 161.508 132.023 162.492 132.023 162.586L123.656 159.984L127.875 150.352C124.734 149.648 121.43 148.828 117.961 147.891C114.492 146.953 110.953 145.898 107.344 144.727C103.781 143.508 100.219 142.148 96.6562 140.648C93.0938 139.148 89.6719 137.508 86.3906 135.727C83.3438 139.242 80.0391 142.711 76.4766 146.133C72.9141 149.508 69.0938 152.555 65.0156 155.273C60.9375 157.945 56.6016 160.102 52.0078 161.742C47.4609 163.43 42.6562 164.273 37.5938 164.273C33.0938 164.273 28.5938 163.594 24.0938 162.234C19.6406 160.922 15.6328 159 12.0703 156.469C8.55469 153.891 5.69531 150.773 3.49219 147.117C1.28906 143.414 0.1875 139.219 0.1875 134.531C0.1875 130.828 0.890625 127.57 2.29688 124.758C3.65625 121.945 5.53125 119.602 7.92188 117.727C10.3594 115.852 13.1953 114.445 16.4297 113.508C19.7109 112.523 23.2266 112.031 26.9766 112.031C29.8359 112.031 32.7891 112.312 35.8359 112.875C38.9297 113.438 41.9297 114.375 44.8359 115.688C47.7422 117 50.4844 118.734 53.0625 120.891C55.6406 123.047 57.8438 125.719 59.6719 128.906L56.5781 130.875C56.5312 130.781 56.25 130.43 55.7344 129.82C55.2656 129.164 54.5391 128.391 53.5547 127.5C52.6172 126.562 51.3984 125.578 49.8984 124.547C48.3984 123.516 46.5938 122.578 44.4844 121.734C42.4219 120.844 40.0078 120.117 37.2422 119.555C34.5234 118.945 31.4297 118.641 27.9609 118.641C24.4453 118.641 21.375 119.25 18.75 120.469C16.125 121.641 13.9219 123.164 12.1406 125.039C10.4062 126.867 9.09375 128.93 8.20312 131.227C7.35938 133.523 6.9375 135.75 6.9375 137.906C6.9375 140.438 7.38281 142.758 8.27344 144.867C9.16406 146.93 10.3594 148.805 11.8594 150.492C13.4062 152.18 15.1875 153.656 17.2031 154.922C19.2656 156.141 21.4219 157.172 23.6719 158.016C25.9688 158.859 28.2891 159.492 30.6328 159.914C33.0234 160.336 35.3438 160.547 37.5938 160.547C42.2344 160.547 46.6875 159.797 50.9531 158.297C55.2188 156.75 59.25 154.734 63.0469 152.25C66.8438 149.719 70.4062 146.859 73.7344 143.672C77.1094 140.484 80.2266 137.227 83.0859 133.898C79.8984 131.977 76.9453 129.914 74.2266 127.711C71.5547 125.461 69.2344 123.07 67.2656 120.539C65.2969 117.961 63.75 115.219 62.625 112.312C61.5469 109.359 61.0078 106.242 61.0078 102.961C61.0078 100.242 61.5 97.6875 62.4844 95.2969C63.5156 92.9062 64.8984 90.8203 66.6328 89.0391C68.4141 87.2109 70.5 85.7812 72.8906 84.75C75.3281 83.6719 77.9297 83.1328 80.6953 83.1328C83.7891 83.1328 86.7188 83.625 89.4844 84.6094C92.25 85.5469 94.875 86.8594 97.3594 88.5469C99.8438 90.1875 102.164 92.1562 104.32 94.4531C106.523 96.75 108.586 99.2344 110.508 101.906C115.758 96.0469 120.984 90.5391 126.188 85.3828C131.438 80.1797 136.477 75.6328 141.305 71.7422C146.133 67.8516 150.68 64.7812 154.945 62.5312C159.258 60.2344 163.148 59.0859 166.617 59.0859ZM112.688 105.141C114.891 108.516 116.906 112.008 118.734 115.617C120.562 119.227 122.203 122.766 123.656 126.234C125.156 129.703 126.469 133.008 127.594 136.148C128.766 139.242 129.773 141.984 130.617 144.375C136.102 132.422 141.961 120.703 148.195 109.219C154.43 97.7344 161.438 86.3906 169.219 75.1875C170.484 73.3125 171.375 71.7656 171.891 70.5469C172.453 69.2812 172.734 68.2031 172.734 67.3125C172.734 65.8125 172.102 64.6875 170.836 63.9375C169.57 63.1406 168.117 62.7422 166.477 62.7422C161.273 62.7422 154.172 66.3047 145.172 73.4297C136.219 80.5078 125.391 91.0781 112.688 105.141ZM67.4062 106.336C67.4062 108.82 67.875 111.188 68.8125 113.438C69.75 115.641 71.0391 117.773 72.6797 119.836C74.3203 121.852 76.2656 123.773 78.5156 125.602C80.7656 127.383 83.2031 129.07 85.8281 130.664C89.3438 126.398 92.9297 122.109 96.5859 117.797C100.242 113.484 103.945 109.219 107.695 105C106.055 102.844 104.344 100.852 102.562 99.0234C100.828 97.1484 99 95.5312 97.0781 94.1719C95.1562 92.8125 93.1641 91.7578 91.1016 91.0078C89.0391 90.2578 86.9062 89.8828 84.7031 89.8828C82.2188 89.8828 79.9219 90.3047 77.8125 91.1484C75.7031 91.9922 73.875 93.1641 72.3281 94.6641C70.7812 96.1172 69.5625 97.8516 68.6719 99.8672C67.8281 101.836 67.4062 103.992 67.4062 106.336ZM127.523 146.414C126.867 144.305 125.977 141.75 124.852 138.75C123.773 135.75 122.484 132.539 120.984 129.117C119.531 125.648 117.867 122.109 115.992 118.5C114.164 114.891 112.148 111.445 109.945 108.164C106.711 111.82 103.359 115.664 99.8906 119.695C96.4219 123.727 92.8125 128.016 89.0625 132.562C92.3438 134.391 95.7656 136.055 99.3281 137.555C102.938 139.008 106.43 140.32 109.805 141.492C113.227 142.617 116.461 143.602 119.508 144.445C122.602 145.289 125.273 145.945 127.523 146.414ZM218.508 122.508C218.508 124.523 218.156 126.586 217.453 128.695C216.75 130.758 215.859 132.844 214.781 134.953C213.703 137.016 212.555 139.055 211.336 141.07C210.117 143.086 208.969 145.031 207.891 146.906C206.812 148.781 205.922 150.586 205.219 152.32C204.516 154.008 204.164 155.555 204.164 156.961C204.164 158.039 204.398 158.766 204.867 159.141C205.336 159.516 205.852 159.703 206.414 159.703C208.195 159.703 210.188 158.836 212.391 157.102C214.594 155.32 216.82 153.094 219.07 150.422C221.367 147.75 223.641 144.844 225.891 141.703C228.141 138.562 230.18 135.586 232.008 132.773L234.539 134.742C234.164 135.305 233.484 136.43 232.5 138.117C231.516 139.758 230.297 141.656 228.844 143.812C227.391 145.922 225.75 148.148 223.922 150.492C222.141 152.789 220.219 154.922 218.156 156.891C216.094 158.812 213.961 160.406 211.758 161.672C209.602 162.938 207.422 163.57 205.219 163.57C203.953 163.57 202.805 163.359 201.773 162.938C200.742 162.516 199.852 161.93 199.102 161.18C198.398 160.43 197.836 159.562 197.414 158.578C196.992 157.547 196.781 156.469 196.781 155.344C196.781 153.516 197.18 151.547 197.977 149.438C198.82 147.281 199.852 145.078 201.07 142.828C202.289 140.578 203.625 138.328 205.078 136.078C206.531 133.781 207.867 131.602 209.086 129.539C210.305 127.477 211.312 125.578 212.109 123.844C212.953 122.062 213.375 120.539 213.375 119.273C213.375 117.82 212.977 116.602 212.18 115.617C211.43 114.633 210.352 114.141 208.945 114.141C207.445 114.141 205.711 114.773 203.742 116.039C201.773 117.258 199.57 119.062 197.133 121.453C194.695 123.844 192.023 126.797 189.117 130.312C186.258 133.781 183.141 137.742 179.766 142.195C177.844 144.773 175.969 147.258 174.141 149.648C173.344 150.68 172.547 151.734 171.75 152.812C170.953 153.891 170.156 154.969 169.359 156.047C168.562 157.078 167.812 158.062 167.109 159C166.406 159.984 165.773 160.828 165.211 161.531L159.023 159L167.25 147.68C168.422 146.086 169.617 144.375 170.836 142.547C172.055 140.719 173.25 138.844 174.422 136.922C175.641 134.953 176.789 132.984 177.867 131.016C178.945 129.047 179.953 127.125 180.891 125.25C182.25 122.438 183.188 120.117 183.703 118.289C184.219 116.414 184.477 114.914 184.477 113.789C184.477 112.523 184.242 111.703 183.773 111.328C183.305 110.906 182.648 110.695 181.805 110.695C180.914 110.695 179.883 111.164 178.711 112.102C177.586 112.992 176.414 114.164 175.195 115.617C173.977 117.023 172.734 118.641 171.469 120.469C170.25 122.25 169.078 124.031 167.953 125.812C166.828 127.594 165.773 129.281 164.789 130.875C163.805 132.469 162.984 133.758 162.328 134.742L159.797 132.773C162.188 129.023 164.344 125.602 166.266 122.508C168.234 119.367 170.109 116.672 171.891 114.422C173.719 112.172 175.477 110.438 177.164 109.219C178.898 107.953 180.727 107.32 182.648 107.32C183.68 107.32 184.664 107.531 185.602 107.953C186.586 108.375 187.43 109.008 188.133 109.852C188.883 110.648 189.469 111.633 189.891 112.805C190.312 113.977 190.523 115.336 190.523 116.883C190.523 118.102 190.383 119.367 190.102 120.68C192.164 118.664 194.086 117 195.867 115.688C197.648 114.375 199.289 113.344 200.789 112.594C202.289 111.797 203.672 111.234 204.938 110.906C206.203 110.578 207.352 110.414 208.383 110.414C209.273 110.414 210.305 110.578 211.477 110.906C212.648 111.234 213.75 111.844 214.781 112.734C215.812 113.625 216.68 114.867 217.383 116.461C218.133 118.008 218.508 120.023 218.508 122.508ZM290.789 122.508C290.789 124.523 290.438 126.586 289.734 128.695C289.031 130.758 288.141 132.844 287.062 134.953C285.984 137.016 284.836 139.055 283.617 141.07C282.398 143.086 281.25 145.031 280.172 146.906C279.094 148.781 278.203 150.586 277.5 152.32C276.797 154.008 276.445 155.555 276.445 156.961C276.445 158.039 276.68 158.766 277.148 159.141C277.617 159.516 278.133 159.703 278.695 159.703C280.477 159.703 282.469 158.836 284.672 157.102C286.875 155.32 289.102 153.094 291.352 150.422C293.648 147.75 295.922 144.844 298.172 141.703C300.422 138.562 302.461 135.586 304.289 132.773L306.82 134.742C306.445 135.305 305.766 136.43 304.781 138.117C303.797 139.758 302.578 141.656 301.125 143.812C299.672 145.922 298.031 148.148 296.203 150.492C294.422 152.789 292.5 154.922 290.438 156.891C288.375 158.812 286.242 160.406 284.039 161.672C281.883 162.938 279.703 163.57 277.5 163.57C276.234 163.57 275.086 163.359 274.055 162.938C273.023 162.516 272.133 161.93 271.383 161.18C270.68 160.43 270.117 159.562 269.695 158.578C269.273 157.547 269.062 156.469 269.062 155.344C269.062 153.516 269.461 151.547 270.258 149.438C271.102 147.281 272.133 145.078 273.352 142.828C274.57 140.578 275.906 138.328 277.359 136.078C278.812 133.781 280.148 131.602 281.367 129.539C282.586 127.477 283.594 125.578 284.391 123.844C285.234 122.062 285.656 120.539 285.656 119.273C285.656 117.82 285.258 116.602 284.461 115.617C283.711 114.633 282.633 114.141 281.227 114.141C279.727 114.141 277.992 114.773 276.023 116.039C274.055 117.258 271.852 119.062 269.414 121.453C266.977 123.844 264.305 126.797 261.398 130.312C258.539 133.781 255.422 137.742 252.047 142.195C250.125 144.773 248.25 147.258 246.422 149.648C245.625 150.68 244.828 151.734 244.031 152.812C243.234 153.891 242.438 154.969 241.641 156.047C240.844 157.078 240.094 158.062 239.391 159C238.688 159.984 238.055 160.828 237.492 161.531L231.305 159L239.531 147.68C240.703 146.086 241.898 144.375 243.117 142.547C244.336 140.719 245.531 138.844 246.703 136.922C247.922 134.953 249.07 132.984 250.148 131.016C251.227 129.047 252.234 127.125 253.172 125.25C254.531 122.438 255.469 120.117 255.984 118.289C256.5 116.414 256.758 114.914 256.758 113.789C256.758 112.523 256.523 111.703 256.055 111.328C255.586 110.906 254.93 110.695 254.086 110.695C253.195 110.695 252.164 111.164 250.992 112.102C249.867 112.992 248.695 114.164 247.477 115.617C246.258 117.023 245.016 118.641 243.75 120.469C242.531 122.25 241.359 124.031 240.234 125.812C239.109 127.594 238.055 129.281 237.07 130.875C236.086 132.469 235.266 133.758 234.609 134.742L232.078 132.773C234.469 129.023 236.625 125.602 238.547 122.508C240.516 119.367 242.391 116.672 244.172 114.422C246 112.172 247.758 110.438 249.445 109.219C251.18 107.953 253.008 107.32 254.93 107.32C255.961 107.32 256.945 107.531 257.883 107.953C258.867 108.375 259.711 109.008 260.414 109.852C261.164 110.648 261.75 111.633 262.172 112.805C262.594 113.977 262.805 115.336 262.805 116.883C262.805 118.102 262.664 119.367 262.383 120.68C264.445 118.664 266.367 117 268.148 115.688C269.93 114.375 271.57 113.344 273.07 112.594C274.57 111.797 275.953 111.234 277.219 110.906C278.484 110.578 279.633 110.414 280.664 110.414C281.555 110.414 282.586 110.578 283.758 110.906C284.93 111.234 286.031 111.844 287.062 112.734C288.094 113.625 288.961 114.867 289.664 116.461C290.414 118.008 290.789 120.023 290.789 122.508ZM360.258 112.242C359.648 113.461 358.781 115.055 357.656 117.023C356.578 118.992 355.406 121.172 354.141 123.562C352.875 125.906 351.586 128.367 350.273 130.945C349.008 133.523 347.836 136.055 346.758 138.539C345.727 140.977 344.859 143.297 344.156 145.5C343.5 147.656 343.172 149.484 343.172 150.984C343.172 152.484 343.453 153.469 344.016 153.938C344.625 154.359 345.398 154.57 346.336 154.57C347.695 154.57 349.078 154.172 350.484 153.375C351.938 152.578 353.344 151.547 354.703 150.281C356.109 149.016 357.469 147.586 358.781 145.992C360.094 144.398 361.312 142.805 362.438 141.211C363.609 139.57 364.664 138.023 365.602 136.57C366.539 135.07 367.336 133.805 367.992 132.773L370.523 134.742C369.727 136.242 368.789 137.859 367.711 139.594C366.633 141.328 365.438 143.086 364.125 144.867C362.859 146.602 361.477 148.289 359.977 149.93C358.477 151.57 356.883 153.023 355.195 154.289C353.555 155.555 351.82 156.562 349.992 157.312C348.164 158.062 346.289 158.438 344.367 158.438C341.555 158.438 339.492 157.594 338.18 155.906C336.867 154.219 336.211 152.039 336.211 149.367C336.211 149.18 336.211 148.781 336.211 148.172C336.258 147.516 336.328 147 336.422 146.625C334.078 149.578 331.828 152.016 329.672 153.938C327.562 155.859 325.5 157.383 323.484 158.508C321.516 159.633 319.594 160.406 317.719 160.828C315.891 161.297 314.133 161.531 312.445 161.531C310.664 161.531 308.977 161.227 307.383 160.617C305.836 160.055 304.477 159.211 303.305 158.086C302.086 156.961 301.148 155.578 300.492 153.938C299.789 152.297 299.438 150.398 299.438 148.242C299.438 145.57 300.047 142.523 301.266 139.102C302.438 135.633 304.547 131.906 307.594 127.922C310.172 124.5 312.844 121.617 315.609 119.273C318.422 116.93 321.164 115.055 323.836 113.648C326.555 112.195 329.133 111.164 331.57 110.555C334.008 109.945 336.188 109.641 338.109 109.641C342.422 109.641 345.68 110.367 347.883 111.82C350.086 113.227 351.422 115.406 351.891 118.359C352.828 117.188 353.812 116.016 354.844 114.844C355.875 113.672 356.93 112.477 358.008 111.258L360.258 112.242ZM338.672 138.961C339.281 137.977 340.031 136.734 340.922 135.234C341.812 133.688 342.75 132.117 343.734 130.523C344.719 128.883 345.68 127.312 346.617 125.812C347.555 124.312 348.375 123.047 349.078 122.016C349.078 121.594 349.008 120.914 348.867 119.977C348.773 119.039 348.469 118.102 347.953 117.164C347.438 116.18 346.617 115.336 345.492 114.633C344.367 113.93 342.797 113.578 340.781 113.578C339.328 113.578 337.688 113.812 335.859 114.281C334.078 114.703 332.156 115.453 330.094 116.531C328.078 117.562 325.992 118.945 323.836 120.68C321.68 122.414 319.523 124.57 317.367 127.148C314.133 131.039 311.625 134.953 309.844 138.891C308.109 142.781 307.242 146.297 307.242 149.438C307.242 152.109 307.852 154.172 309.07 155.625C310.289 157.078 312.023 157.805 314.273 157.805C316.852 157.805 319.266 157.242 321.516 156.117C323.766 154.945 325.875 153.445 327.844 151.617C329.812 149.789 331.688 147.773 333.469 145.57C335.25 143.32 336.984 141.117 338.672 138.961Z" fill="#C59E22"/>
<path d="M921.977 183.258C921.836 183.352 921.203 183.68 920.078 184.242C918.953 184.805 917.477 185.414 915.648 186.07C913.82 186.727 911.734 187.312 909.391 187.828C907.047 188.391 904.609 188.672 902.078 188.672C897.953 188.672 894.25 187.945 890.969 186.492C887.688 185.039 884.898 182.977 882.602 180.305C880.352 177.68 878.617 174.492 877.398 170.742C876.18 167.039 875.57 162.914 875.57 158.367C875.57 154.008 876.109 149.227 877.188 144.023C878.266 138.773 879.672 133.383 881.406 127.852C883.141 122.32 885.086 116.789 887.242 111.258C889.445 105.727 891.648 100.477 893.852 95.5078C896.102 90.4922 898.234 85.9219 900.25 81.7969C902.266 77.625 904 74.1562 905.453 71.3906C902.828 74.3906 899.828 77.8594 896.453 81.7969C893.078 85.6875 889.469 89.9766 885.625 94.6641C881.828 99.3047 877.867 104.273 873.742 109.57C869.617 114.82 865.445 120.305 861.227 126.023C857.055 131.695 852.906 137.531 848.781 143.531C844.656 149.484 840.719 155.484 836.969 161.531L833.594 160.406C834.297 152.766 835.445 145.195 837.039 137.695C838.68 130.148 840.508 122.906 842.523 115.969C844.586 108.984 846.742 102.445 848.992 96.3516C851.289 90.2109 853.469 84.7266 855.531 79.8984C852.391 84.2109 849.25 88.8984 846.109 93.9609C843.016 98.9766 839.875 104.156 836.688 109.5C833.5 114.797 830.219 120.141 826.844 125.531C823.469 130.875 819.953 136.031 816.297 141C812.641 145.922 808.773 150.539 804.695 154.852C800.664 159.117 796.352 162.82 791.758 165.961C787.211 169.148 782.336 171.656 777.133 173.484C771.977 175.312 766.445 176.227 760.539 176.227C755.992 176.227 751.867 175.547 748.164 174.188C744.461 172.828 741.273 170.953 738.602 168.562C735.977 166.219 733.961 163.453 732.555 160.266C731.102 157.078 730.375 153.633 730.375 149.93C730.375 146.32 730.961 143.062 732.133 140.156C733.258 137.203 734.781 134.602 736.703 132.352C738.625 130.055 740.852 128.086 743.383 126.445C745.961 124.758 748.656 123.375 751.469 122.297C754.281 121.219 757.117 120.422 759.977 119.906C762.883 119.391 765.648 119.133 768.273 119.133C773.711 119.133 778.914 119.789 783.883 121.102C788.852 122.367 793.633 124.641 798.227 127.922L795.766 130.664C795.719 130.617 795.109 130.195 793.938 129.398C792.766 128.555 791.078 127.641 788.875 126.656C786.672 125.672 783.93 124.781 780.648 123.984C777.414 123.188 773.711 122.789 769.539 122.789C765.508 122.789 761.594 123.328 757.797 124.406C754.047 125.484 750.719 127.125 747.812 129.328C744.953 131.484 742.656 134.227 740.922 137.555C739.188 140.836 738.32 144.703 738.32 149.156C738.32 152.344 738.93 155.297 740.148 158.016C741.414 160.734 743.148 163.078 745.352 165.047C747.555 167.062 750.203 168.633 753.297 169.758C756.391 170.883 759.812 171.445 763.562 171.445C769.188 171.445 774.578 170.25 779.734 167.859C784.891 165.469 789.859 162.234 794.641 158.156C799.422 154.078 804.016 149.32 808.422 143.883C812.875 138.445 817.141 132.703 821.219 126.656C825.344 120.609 829.328 114.398 833.172 108.023C837.016 101.648 840.742 95.5078 844.352 89.6016C847.961 83.6484 851.477 78.0938 854.898 72.9375C858.32 67.7344 861.672 63.2578 864.953 59.5078L868.117 61.4062C866.055 67.6875 864.273 73.2188 862.773 78C861.273 82.7344 859.961 86.9062 858.836 90.5156C857.758 94.125 856.82 97.2422 856.023 99.8672C855.273 102.492 854.617 104.836 854.055 106.898C853.492 108.961 852.977 110.836 852.508 112.523C852.086 114.164 851.641 115.805 851.172 117.445C850.75 119.086 850.258 120.82 849.695 122.648C849.133 124.477 848.453 126.609 847.656 129.047C846.859 131.438 845.922 134.227 844.844 137.414C843.766 140.555 842.453 144.281 840.906 148.594C844.844 142.641 848.875 136.781 853 131.016C857.172 125.25 861.32 119.672 865.445 114.281C869.57 108.891 873.602 103.734 877.539 98.8125C881.523 93.8906 885.273 89.3203 888.789 85.1016C892.352 80.8828 895.609 77.0625 898.562 73.6406C901.562 70.1719 904.164 67.2188 906.367 64.7812C908.57 62.3437 910.281 60.4453 911.5 59.0859C912.766 57.7266 913.422 57.0234 913.469 56.9766L916.422 59.1562C913.656 66 910.914 72.8672 908.195 79.7578C905.477 86.6016 902.852 93.2812 900.32 99.7969C897.836 106.312 895.516 112.594 893.359 118.641C891.203 124.688 889.328 130.359 887.734 135.656C886.141 140.906 884.875 145.711 883.938 150.07C883.047 154.383 882.602 158.086 882.602 161.18C882.602 164.836 883.023 168.141 883.867 171.094C884.758 174.047 886.023 176.555 887.664 178.617C889.305 180.68 891.32 182.25 893.711 183.328C896.148 184.453 898.891 185.016 901.938 185.016C904.234 185.016 906.461 184.758 908.617 184.242C910.82 183.727 912.766 183.164 914.453 182.555C916.141 181.945 917.5 181.383 918.531 180.867C919.562 180.352 920.102 180.094 920.148 180.094L921.977 183.258ZM965.992 112.242C965.383 113.461 964.516 115.055 963.391 117.023C962.312 118.992 961.141 121.172 959.875 123.562C958.609 125.906 957.32 128.367 956.008 130.945C954.742 133.523 953.57 136.055 952.492 138.539C951.461 140.977 950.594 143.297 949.891 145.5C949.234 147.656 948.906 149.484 948.906 150.984C948.906 152.484 949.188 153.469 949.75 153.938C950.359 154.359 951.133 154.57 952.07 154.57C953.43 154.57 954.812 154.172 956.219 153.375C957.672 152.578 959.078 151.547 960.438 150.281C961.844 149.016 963.203 147.586 964.516 145.992C965.828 144.398 967.047 142.805 968.172 141.211C969.344 139.57 970.398 138.023 971.336 136.57C972.273 135.07 973.07 133.805 973.727 132.773L976.258 134.742C975.461 136.242 974.523 137.859 973.445 139.594C972.367 141.328 971.172 143.086 969.859 144.867C968.594 146.602 967.211 148.289 965.711 149.93C964.211 151.57 962.617 153.023 960.93 154.289C959.289 155.555 957.555 156.562 955.727 157.312C953.898 158.062 952.023 158.438 950.102 158.438C947.289 158.438 945.227 157.594 943.914 155.906C942.602 154.219 941.945 152.039 941.945 149.367C941.945 149.18 941.945 148.781 941.945 148.172C941.992 147.516 942.062 147 942.156 146.625C939.812 149.578 937.562 152.016 935.406 153.938C933.297 155.859 931.234 157.383 929.219 158.508C927.25 159.633 925.328 160.406 923.453 160.828C921.625 161.297 919.867 161.531 918.18 161.531C916.398 161.531 914.711 161.227 913.117 160.617C911.57 160.055 910.211 159.211 909.039 158.086C907.82 156.961 906.883 155.578 906.227 153.938C905.523 152.297 905.172 150.398 905.172 148.242C905.172 145.57 905.781 142.523 907 139.102C908.172 135.633 910.281 131.906 913.328 127.922C915.906 124.5 918.578 121.617 921.344 119.273C924.156 116.93 926.898 115.055 929.57 113.648C932.289 112.195 934.867 111.164 937.305 110.555C939.742 109.945 941.922 109.641 943.844 109.641C948.156 109.641 951.414 110.367 953.617 111.82C955.82 113.227 957.156 115.406 957.625 118.359C958.562 117.188 959.547 116.016 960.578 114.844C961.609 113.672 962.664 112.477 963.742 111.258L965.992 112.242ZM944.406 138.961C945.016 137.977 945.766 136.734 946.656 135.234C947.547 133.688 948.484 132.117 949.469 130.523C950.453 128.883 951.414 127.312 952.352 125.812C953.289 124.312 954.109 123.047 954.812 122.016C954.812 121.594 954.742 120.914 954.602 119.977C954.508 119.039 954.203 118.102 953.688 117.164C953.172 116.18 952.352 115.336 951.227 114.633C950.102 113.93 948.531 113.578 946.516 113.578C945.062 113.578 943.422 113.812 941.594 114.281C939.812 114.703 937.891 115.453 935.828 116.531C933.812 117.562 931.727 118.945 929.57 120.68C927.414 122.414 925.258 124.57 923.102 127.148C919.867 131.039 917.359 134.953 915.578 138.891C913.844 142.781 912.977 146.297 912.977 149.438C912.977 152.109 913.586 154.172 914.805 155.625C916.023 157.078 917.758 157.805 920.008 157.805C922.586 157.805 925 157.242 927.25 156.117C929.5 154.945 931.609 153.445 933.578 151.617C935.547 149.789 937.422 147.773 939.203 145.57C940.984 143.32 942.719 141.117 944.406 138.961ZM948.695 98.8125H943.844L956.359 85.1719H965.148L948.695 98.8125ZM1018.16 134.742C1017.46 135.773 1016.62 137.18 1015.63 138.961C1014.7 140.695 1013.59 142.594 1012.33 144.656C1011.06 146.672 1009.66 148.734 1008.11 150.844C1006.61 152.953 1004.95 154.852 1003.12 156.539C1001.34 158.227 999.391 159.609 997.281 160.688C995.172 161.766 992.922 162.305 990.531 162.305C989.219 162.305 987.977 162.094 986.805 161.672C985.633 161.297 984.602 160.688 983.711 159.844C982.82 159 982.117 157.969 981.602 156.75C981.086 155.484 980.828 154.008 980.828 152.32C980.828 150.023 981.273 147.633 982.164 145.148C983.102 142.617 984.18 140.18 985.398 137.836C986.617 135.492 987.836 133.359 989.055 131.438C990.273 129.469 991.164 127.898 991.727 126.727C992.289 125.555 992.57 124.547 992.57 123.703C992.57 123.094 992.359 122.555 991.938 122.086C991.562 121.617 991.07 121.172 990.461 120.75C989.898 120.281 989.289 119.812 988.633 119.344C988.023 118.828 987.508 118.219 987.086 117.516C985.914 119.391 984.719 121.289 983.5 123.211C982.422 124.852 981.25 126.703 979.984 128.766C978.719 130.781 977.5 132.773 976.328 134.742L973.797 132.773L988.844 109.219L990.883 110.273C990.789 110.555 990.625 111 990.391 111.609C990.203 112.219 990.109 112.875 990.109 113.578C990.109 114.094 990.18 114.609 990.32 115.125C990.508 115.594 990.859 116.039 991.375 116.461C993.25 118.148 994.727 119.461 995.805 120.398C996.883 121.289 997.656 122.016 998.125 122.578C998.641 123.094 998.945 123.539 999.039 123.914C999.18 124.242 999.25 124.688 999.25 125.25C999.25 125.812 999.156 126.492 998.969 127.289C998.781 128.086 998.453 129.047 997.984 130.172C997.562 131.297 996.953 132.633 996.156 134.18C995.406 135.68 994.445 137.438 993.273 139.453C992.57 140.672 991.867 141.914 991.164 143.18C990.508 144.398 989.898 145.641 989.336 146.906C988.82 148.172 988.398 149.438 988.07 150.703C987.742 151.969 987.578 153.188 987.578 154.359C987.578 155.25 987.695 155.977 987.93 156.539C988.211 157.055 988.562 157.453 988.984 157.734C989.406 158.016 989.852 158.203 990.32 158.297C990.836 158.391 991.328 158.438 991.797 158.438C993.344 158.438 994.867 157.992 996.367 157.102C997.914 156.164 999.414 154.969 1000.87 153.516C1002.37 152.062 1003.8 150.422 1005.16 148.594C1006.56 146.719 1007.9 144.82 1009.16 142.898C1010.43 140.977 1011.6 139.148 1012.68 137.414C1013.76 135.633 1014.72 134.086 1015.56 132.773L1018.16 134.742ZM1029.84 100.992C1030.3 100.195 1031.12 98.8125 1032.3 96.8438C1033.52 94.875 1034.92 92.6953 1036.52 90.3047C1038.16 87.9141 1039.91 85.5234 1041.79 83.1328C1043.71 80.6953 1045.59 78.6328 1047.41 76.9453L1050.58 78.8438C1048.56 82.1719 1046.5 85.7109 1044.39 89.4609C1042.28 93.1641 1040.2 97.0078 1038.13 100.992H1061.05L1059.65 104.648H1036.23C1034.12 108.867 1032.13 113.062 1030.26 117.234C1028.43 121.406 1026.81 125.391 1025.41 129.188C1024 132.984 1022.9 136.547 1022.1 139.875C1021.3 143.156 1020.91 146.016 1020.91 148.453C1020.91 151.5 1021.61 153.703 1023.02 155.062C1024.42 156.375 1026.16 157.031 1028.22 157.031C1030.05 157.031 1031.92 156.492 1033.84 155.414C1035.77 154.289 1037.64 152.883 1039.47 151.195C1041.34 149.508 1043.1 147.656 1044.74 145.641C1046.43 143.625 1047.91 141.727 1049.17 139.945C1050.48 138.164 1051.56 136.617 1052.41 135.305C1053.25 133.945 1053.77 133.102 1053.95 132.773L1056.55 134.742C1054.91 137.461 1053.06 140.344 1051 143.391C1048.94 146.438 1046.64 149.273 1044.11 151.898C1041.62 154.477 1038.91 156.633 1035.95 158.367C1033 160.055 1029.81 160.898 1026.39 160.898C1024.28 160.898 1022.43 160.523 1020.84 159.773C1019.29 159.023 1017.98 157.992 1016.9 156.68C1015.82 155.32 1015.02 153.727 1014.51 151.898C1013.95 150.07 1013.66 148.078 1013.66 145.922C1013.66 144.516 1013.9 142.523 1014.37 139.945C1014.79 137.367 1015.54 134.32 1016.62 130.805C1017.7 127.242 1019.12 123.258 1020.91 118.852C1022.73 114.445 1025.03 109.711 1027.8 104.648H1016.12L1017.53 100.992H1029.84ZM1093.61 139.875C1093.8 139.922 1093.98 139.945 1094.17 139.945C1094.36 139.945 1094.57 139.945 1094.8 139.945C1096.12 139.945 1097.31 139.828 1098.39 139.594C1099.47 139.312 1100.45 138.891 1101.34 138.328C1102.28 137.766 1103.17 137.039 1104.02 136.148C1104.86 135.211 1105.68 134.086 1106.48 132.773L1109.01 134.742C1106.76 137.93 1104.44 140.156 1102.05 141.422C1099.66 142.688 1097.12 143.32 1094.45 143.32C1093.47 143.32 1092.6 143.227 1091.85 143.039C1089.84 146.414 1087.68 149.297 1085.38 151.688C1083.09 154.031 1080.74 155.953 1078.35 157.453C1075.96 158.953 1073.59 160.031 1071.25 160.688C1068.91 161.391 1066.73 161.742 1064.71 161.742C1062.65 161.742 1060.73 161.367 1058.95 160.617C1057.21 159.914 1055.71 158.883 1054.45 157.523C1053.18 156.164 1052.2 154.547 1051.49 152.672C1050.79 150.797 1050.44 148.688 1050.44 146.344C1050.44 144 1050.81 141.609 1051.56 139.172C1052.31 136.734 1053.32 134.32 1054.59 131.93C1055.9 129.539 1057.42 127.242 1059.16 125.039C1060.89 122.789 1062.77 120.703 1064.78 118.781C1066.8 116.859 1068.88 115.125 1071.04 113.578C1073.2 112.031 1075.35 110.766 1077.51 109.781L1079.76 112.734C1077.27 114.516 1074.74 116.766 1072.16 119.484C1069.63 122.203 1067.31 125.18 1065.2 128.414C1063.14 131.648 1061.43 135.023 1060.07 138.539C1058.76 142.008 1058.1 145.383 1058.1 148.664C1058.1 151.617 1058.76 153.914 1060.07 155.555C1061.38 157.148 1063.38 157.945 1066.05 157.945C1068.11 157.945 1070.15 157.523 1072.16 156.68C1074.18 155.836 1076.15 154.688 1078.07 153.234C1079.99 151.781 1081.84 150.07 1083.62 148.102C1085.41 146.086 1087.09 143.953 1088.69 141.703C1087.33 140.906 1086.13 139.852 1085.1 138.539C1084.07 137.18 1083.2 135.656 1082.5 133.969C1081.8 132.234 1081.26 130.383 1080.88 128.414C1080.55 126.445 1080.39 124.43 1080.39 122.367C1080.39 120.305 1080.65 118.359 1081.16 116.531C1081.68 114.703 1082.38 113.109 1083.27 111.75C1084.21 110.344 1085.29 109.242 1086.51 108.445C1087.73 107.648 1089.06 107.25 1090.52 107.25C1091.83 107.25 1093 107.602 1094.03 108.305C1095.06 108.961 1095.93 109.898 1096.63 111.117C1097.34 112.289 1097.88 113.695 1098.25 115.336C1098.62 116.977 1098.81 118.734 1098.81 120.609C1098.81 122.016 1098.7 123.562 1098.46 125.25C1098.23 126.938 1097.88 128.648 1097.41 130.383C1096.98 132.07 1096.45 133.758 1095.79 135.445C1095.18 137.086 1094.45 138.562 1093.61 139.875ZM1084.05 122.367C1084.05 123.727 1084.16 125.203 1084.4 126.797C1084.63 128.391 1085.01 129.938 1085.52 131.438C1086.04 132.938 1086.7 134.344 1087.49 135.656C1088.29 136.922 1089.27 137.93 1090.45 138.68C1091.29 137.039 1091.99 135.375 1092.55 133.688C1093.16 131.953 1093.66 130.289 1094.03 128.695C1094.45 127.102 1094.73 125.625 1094.88 124.266C1095.06 122.859 1095.16 121.641 1095.16 120.609C1095.16 119.203 1095.04 117.914 1094.8 116.742C1094.57 115.57 1094.24 114.562 1093.82 113.719C1093.45 112.828 1092.95 112.148 1092.34 111.68C1091.78 111.164 1091.15 110.906 1090.45 110.906C1089.51 110.906 1088.64 111.234 1087.84 111.891C1087.05 112.5 1086.37 113.344 1085.8 114.422C1085.24 115.453 1084.8 116.672 1084.47 118.078C1084.19 119.438 1084.05 120.867 1084.05 122.367ZM1165.26 122.508C1165.26 124.523 1164.91 126.586 1164.2 128.695C1163.5 130.758 1162.61 132.844 1161.53 134.953C1160.45 137.016 1159.3 139.055 1158.09 141.07C1156.87 143.086 1155.72 145.031 1154.64 146.906C1153.56 148.781 1152.67 150.586 1151.97 152.32C1151.27 154.008 1150.91 155.555 1150.91 156.961C1150.91 158.039 1151.15 158.766 1151.62 159.141C1152.09 159.516 1152.6 159.703 1153.16 159.703C1154.95 159.703 1156.94 158.836 1159.14 157.102C1161.34 155.32 1163.57 153.094 1165.82 150.422C1168.12 147.75 1170.39 144.844 1172.64 141.703C1174.89 138.562 1176.93 135.586 1178.76 132.773L1181.29 134.742C1180.91 135.305 1180.23 136.43 1179.25 138.117C1178.27 139.758 1177.05 141.656 1175.59 143.812C1174.14 145.922 1172.5 148.148 1170.67 150.492C1168.89 152.789 1166.97 154.922 1164.91 156.891C1162.84 158.812 1160.71 160.406 1158.51 161.672C1156.35 162.938 1154.17 163.57 1151.97 163.57C1150.7 163.57 1149.55 163.359 1148.52 162.938C1147.49 162.516 1146.6 161.93 1145.85 161.18C1145.15 160.43 1144.59 159.562 1144.16 158.578C1143.74 157.547 1143.53 156.469 1143.53 155.344C1143.53 153.516 1143.93 151.547 1144.73 149.438C1145.57 147.281 1146.6 145.078 1147.82 142.828C1149.04 140.578 1150.38 138.328 1151.83 136.078C1153.28 133.781 1154.62 131.602 1155.84 129.539C1157.05 127.477 1158.06 125.578 1158.86 123.844C1159.7 122.062 1160.12 120.539 1160.12 119.273C1160.12 117.82 1159.73 116.602 1158.93 115.617C1158.18 114.633 1157.1 114.141 1155.7 114.141C1154.2 114.141 1152.46 114.773 1150.49 116.039C1148.52 117.258 1146.32 119.062 1143.88 121.453C1141.45 123.844 1138.77 126.797 1135.87 130.312C1133.01 133.781 1129.89 137.742 1126.52 142.195C1124.59 144.773 1122.72 147.258 1120.89 149.648C1120.09 150.68 1119.3 151.734 1118.5 152.812C1117.7 153.891 1116.91 154.969 1116.11 156.047C1115.31 157.078 1114.56 158.062 1113.86 159C1113.16 159.984 1112.52 160.828 1111.96 161.531L1105.77 159L1114 147.68C1115.17 146.086 1116.37 144.375 1117.59 142.547C1118.8 140.719 1120 138.844 1121.17 136.922C1122.39 134.953 1123.54 132.984 1124.62 131.016C1125.7 129.047 1126.7 127.125 1127.64 125.25C1129 122.438 1129.94 120.117 1130.45 118.289C1130.97 116.414 1131.23 114.914 1131.23 113.789C1131.23 112.523 1130.99 111.703 1130.52 111.328C1130.05 110.906 1129.4 110.695 1128.55 110.695C1127.66 110.695 1126.63 111.164 1125.46 112.102C1124.34 112.992 1123.16 114.164 1121.95 115.617C1120.73 117.023 1119.48 118.641 1118.22 120.469C1117 122.25 1115.83 124.031 1114.7 125.812C1113.58 127.594 1112.52 129.281 1111.54 130.875C1110.55 132.469 1109.73 133.758 1109.08 134.742L1106.55 132.773C1108.94 129.023 1111.09 125.602 1113.02 122.508C1114.98 119.367 1116.86 116.672 1118.64 114.422C1120.47 112.172 1122.23 110.438 1123.91 109.219C1125.65 107.953 1127.48 107.32 1129.4 107.32C1130.43 107.32 1131.41 107.531 1132.35 107.953C1133.34 108.375 1134.18 109.008 1134.88 109.852C1135.63 110.648 1136.22 111.633 1136.64 112.805C1137.06 113.977 1137.27 115.336 1137.27 116.883C1137.27 118.102 1137.13 119.367 1136.85 120.68C1138.91 118.664 1140.84 117 1142.62 115.688C1144.4 114.375 1146.04 113.344 1147.54 112.594C1149.04 111.797 1150.42 111.234 1151.69 110.906C1152.95 110.578 1154.1 110.414 1155.13 110.414C1156.02 110.414 1157.05 110.578 1158.23 110.906C1159.4 111.234 1160.5 111.844 1161.53 112.734C1162.56 113.625 1163.43 114.867 1164.13 116.461C1164.88 118.008 1165.26 120.023 1165.26 122.508Z" fill="#C59E22"/>
<rect x="436" y="6" width="149.369" height="149.369" rx="74.6843" stroke="url(#paint0_linear)" stroke-width="12"/>
<rect x="507.548" y="29.7051" width="168.452" height="168.452" rx="84.226" stroke="url(#paint1_linear)" stroke-width="14"/>
<defs>
<linearGradient id="paint0_linear" x1="547.58" y1="143.934" x2="481.897" y2="5.67629" gradientUnits="userSpaceOnUse">
<stop stop-color="#D4AF37"/>
<stop offset="1" stop-color="#E6CB77"/>
</linearGradient>
<linearGradient id="paint1_linear" x1="633.49" y1="185.445" x2="559.226" y2="29.123" gradientUnits="userSpaceOnUse">
<stop stop-color="#D4AF37"/>
<stop offset="1" stop-color="#E6CB77"/>
</linearGradient>
</defs>
</svg>
